<?xml version="1.0" encoding="utf-8"?>

<!DOCTYPE svg PUBLIC "-//W3C//DTD SVG 1.1//EN" "http://www.w3.org/Graphics/SVG/1.1/DTD/svg11.dtd">
<svg version="1.1" id="Layer_1" xmlns="http://www.w3.org/2000/svg" xmlns:xlink="http://www.w3.org/1999/xlink" x="0px" y="0px"
	 viewBox="0 0 1770.118 1645.354" enable-background="new 0 0 1770.118 1645.354" xml:space="preserve">
<g>
	<path d="M1134.305,52.369c7.412-8.868,7.87-21.821,16.748-29.691c4.46,1.185,8.92,2.349,13.39,3.514
		c0.655,1.84,1.403,3.711,1.435,5.707c0.925,107.704-78.783,198.347-104.105,293.135c-8.452,0.447-16.758-1.518-24.389-5.042
		c0.53-22.414-4.262-46.886-21.156-62.916c2.162-6.747,4.294-13.504,6.466-20.241c13.311,0.223,57.501,3.24,61.118-9.252
		c7.766-20.73,15.604-41.438,23.464-62.126c-16.821-13.369-32.841-28.911-53.705-35.752
		C1070.348,92.583,1110.778,82.071,1134.305,52.369z"/>
	<path d="M746.422,148.334c33.132-18.806,72.668-21.79,105.716-40.752c7.849,2.329,13.203,8.993,20.657,12.09
		c32.63-12.088,32.472-12.239,36.136-11.987c18.952,0.821,37.966,0.832,56.907,1.84c5.229,3.451,6.103,12.111,13.161,13.317
		c16.717,0.873,33.485,1.05,50.223,1.85c0.541,3.909,1.05,7.818,1.663,11.727c-40.72,31.751-94.704,90.859-105.457,141.385
		c-7,34.561,39.772,97.541,82.315,98.055c26.907,0.726,44.489-26.26,63.644-42.322c5.479,3.337,10.895,6.799,16.342,10.198
		c-0.147,57.483-14.191,70.721,15.792,118.628c26.182,40.74,62.59,73.554,46.075,144.462c6.466-3.181,13.286-0.364,19.503,1.923
		c-5.09,85.325-26.093,186.483,1.632,258.121c6.809-21.613,13.743-43.185,20.646-64.767c12.594-34.877,2.659-117.023,31.739-154.328
		c24.603-30.573,66.129-37.942,103.616-52.624c0.603-4.533,1.092-9.065,1.705-13.577c-7.589-7.423-15.251-14.773-22.881-22.133
		c-127.321,32.471-103.836-20.656-124.294-49.214c-10.043-13.421-23.869-23.276-35.066-35.627
		c-18.245-21.145-27.352-48.435-45.43-69.695c1.06-5.084,2.152-10.167,3.233-15.24c4.99-0.021,9.98,0.01,14.981-0.042
		c-4.997-14.784-41.044-71.174-14.721-90.071c2.537,0.166,3.691,3.098,5.427,4.689c4.345,5.718,10.448,10.354,12.787,17.392
		c15.988,38.882,22.5,81.226,47.447,109.521c14.263,16.53,36.084,24.285,49.589,41.615c-2.235,5.115-4.377,10.271-6.591,15.386
		c-1-0.71-36.354-25.758-40.513-27.653c0.034,14.969-2.919,1.934,14.534,51.554c31.955,11.983,54.003-46.062,113.825,0.405
		c32.685,25.869,60.158,63.427,94.312,80.964c-40.045-49.007-90.736-88.605-127.111-140.72
		c-18.181-24.563-10.734-48.623-40.44-61.492c15.136,25.108,25.776,47.058,29.348,78.23c-4.429,3.95-8.733,8.036-13.161,11.976
		c-39.912-16.887-110.071-113.853-104.063-166.429c1.112-0.645,2.246-1.279,3.389-1.913c29.464,11.353,29.872,50.322,50.389,73.146
		c-8.732-22.389-9.085-24.948-4.876-49.329c6.778-0.551,12.6,3.483,18.546,6.102c29.514,14.7,51.876,39.598,73.946,63.405
		c21.317,23.107,2.024,5.452,191.234,167.458c25.497,22.017,84.799,52.708,90.455,80.621c29.148-2.091,46.651,22.112,64.517,39.817
		c12.884,13.277,166.424,123.822,103.98,269.11c-6.248,13.962-17.673,25.002-30.741,32.654
		c-49.676,29.556-53.342,17.585-85.382,77.824c-14.93,28.338-30.117,45.038-65.515,47.842
		c-31.727-39.979-89.1-66.155-139.898-73.042c17.174-38.756,24.025-80.974,38.735-120.583
		c27.727-72.976,62.319-68.985,93.013-112.152c-0.676-7.371-1.029-14.762-1.736-22.112c-24.314,19.557-83.2,74.293-106.777,81.39
		c-17.354,5.077-5.335-5.266-90.039,100.175c-6.736,8.504-3.907,26.077-5.25,33.662c-0.749,4.19-3.285,7.734-6.082,10.843
		c-24.894-0.395-32.079-5.251-50.296-13.733c3.223-37.373,6.487-74.757,9.751-112.131c8.099,1.736,16.218,3.399,24.337,5.115
		c-3.639,31.167-7.683,62.293-11.269,93.47c4.855,0.489,9.71,1.092,14.575,1.632c2.666-67.265,58.016-91.624,89.426-132.455
		c-27.952,10.783-47.318,34.542-79.654,23.88c3.94-3.836,5.853-9.117,9.377-13.265c39.56-48.774,173.683-63.766,184.247-114.096
		c-6.03-6.996-14.159-11.519-21.364-17.122c-51.047,29.521-52.289,30.217-59.101,32.196c-17.434,6.102-36.739,6.653-53.123,15.656
		c-14.336,13.795-28.079,28.246-42.291,42.187c-4.845-0.593-9.679-1.175-14.523-1.715c-1.112-6.768-2.121-13.556-3.275-20.324
		c33.693-59.077,103.299-83.083,162.697-108.804c-43.098-7.174-91.571-10.656-129.399,10.905
		c-50.378,28.418-73.12,105.858-77.845,134.534c-7.141,39.29-22.721,156.666-54.423,143.246c-4.553-1.913-8.774-4.512-13.182-6.705
		c0.507-39.804-10.47-73.323-17.039-103.263c-0.426-1.601-0.676-3.451-2.329-4.273c-2.433,27.913-4.418,55.857-6.664,83.791
		c-6.061,0.322-12.07-0.478-17.954-1.799c-30.667-97.177-28.56-90.734-30.626-92.306c-0.478,27.965-0.083,55.941-0.208,83.916
		c-188.451-103.988,11.649-313.422-9.367-411.649c-7.648-38.095-50.759-49.136-58.904-85.985
		c-25.75,44.609,10.111,92.914-1.133,162.749c-4.144,25.33-14.198,57.47-31.333,76.722c-7.048-2.88-14.118-5.666-21.166-8.514
		c-0.769-49.173-13.588-97.4-12.683-146.666c0.455-29.2,1.919-33.545,15.927-94.53c6.497,1.695,12.995,3.379,19.482,5.094
		c3.774-18.131,7.641-36.23,11.342-54.371c-43.152,15.79-42.095,15.275-44.682,15.729
		C893.41,428.074,878.477,292.372,874.864,290.488c-3.049,107.674,75.132,133.357,118.628,192.564
		c1.388,82.808,24.794,290.814-35.7,309.197c58.042-335.7,9.418-305.59-51.283-358.598c-35.821-31.88-37.753-94.065-75.714-115.509
		c110.724,235.159,94.172,196.482,99.604,221.06c18.122,98.616,7.163,223.706,7.807,337.848c-5.447-0.499-10.874-1.112-16.301-1.674
		c-40.254-132.85-28.192-69.164-43.351-246.883c-2.692-37.482-72.123-205.603-107.806-242.163
		c18.401,54.527,44.547,106.143,61.679,161.137c12.627,40.956,27.513,116.626,1.767,146.25c-4.907-2.911-9.855-5.707-14.752-8.608
		c2.129-72.304-51.941-101.754-55.358-142.633c-0.634-5.718-0.322-11.633-2.214-17.122
		c-48.017-125.434-43.438-114.783-46.272-117.859c-2.571,82.749,14.229,141.754,43.746,212.857
		c40.43,91.181,97.043,99.154,97.514,317.867c-7.558-1.653-15.074-3.42-22.632-5c-1.209-77.55-26.519-101.215-44.339-149.764
		c-1.341-3.046-1.643-6.789-4.366-8.992c0.139,52.313,19.586,191.942-1.705,219.895c-8.119-2.932-16.311-5.655-24.441-8.566
		c-4.331-25.262-18.885-39.3-22.341-57.718c-63.191-286.107-67.881-380.226-85.985-417.2c-2.047,7.453-5.245,59.813,5.302,121.009
		c11.561,68.081,40.925,154.56,40.243,190.152c-0.014,54.977-31.986,104.675-17.621,164.558c3.015,12.662,5.697,25.418,8.857,38.06
		c7.169,19.936,28.719,23.226,34.109,52.895c-47.027,45.295-48.419,50.01-54.807,45.618c-10.925-6.816-18.578-8.696-30.096-35.378
		c-67.87-161.783,10-92.957-40.419-308.448c-5.962-28.336-0.743,11.856-6.591-81.837c-13.715-89.798-6.589-171.837-37.218-241.696
		c-4.699-0.624-9.107,0.915-13.005,3.431c32.415,320.52,57.699,383.681,40.731,429.779c-5.988-3.431-12.007-6.809-17.975-10.271
		c-1.955-71.939-33.991-138.883-50.712-198.137c-13.517-49.792,0.331-120.579-15.843-166.949c-4.907-0.665-9.824-1.164-14.731-1.778
		c-16.406,210.317,50.113,386.772,68.291,453.368c14.6,55.51,11.883,49.155,20.449,62.677c14.46,21.727,33.97,40.471,39.775,63.103
		c-1.674,3.4-3.306,6.83-4.938,10.271C460.596,984.909,413.087,723.705,404.894,539.056c-3.805,0.593-7.61,1.133-11.404,1.747
		c-4.957,395.338,37.446,366.466,77.055,471.145c35.493,88.705,39.15,101.162,87.7,128.743
		c18.099,10.313,37.228,19.929,51.574,35.429c-0.062,3.909-0.052,7.828-0.062,11.747c-26.562,21.343-37.186,55.494-60.182,79.914
		c-22.573-22.236-4.44-1.634-50.566-38.933c-53.054-44.101-134.931-124.678-160.42-166.034
		C298,999.433,320.739,586.379,319.855,568.767c-22.023,166.28-24.228,103.245-41.106,319.333
		c-0.686,12.745-3.244,25.273-4.928,37.904c-1.757,12.829-4.013,25.595-5.468,38.455c1.473,65.748,27.743,124.776,27.549,197.929
		c15.189,5.24,28.724,14.398,40.378,25.345c49.5,46.049,46.684,77.102,122.184,117.007c22.237,11.831,45.565,22.975,63.498,41.116
		c-23.911,45.846-47.707,91.744-71.587,137.611c-5.406-0.613-10.833-1.112-16.238-1.736
		c0.295-127.632-155.625-155.642-190.745-256.135c-126.095-351.517-19.49-543.411-6.04-656.11
		c-24.192,1.267-39.177,46.239-47.042,69.299c-12.066,26.148-12.807,21.816-21.239,47.437
		c-13.515,43.31-18.744,88.542-26.988,133.016c-30.531,162.258-8.047,334.252,35.419,492.872
		c33.203,121.293,49.56,151.174,100.383,257.466c11.124,16.8,22.965,33.132,34.275,49.817c-5.458,1.05-10.885,2.287-16.353,3.285
		c-66.145-53.771-88.682-135.491-173.269-327.223c-7.828-19.388-20.22-36.469-29.691-55.015c-4.525-61.179-1.754-55.6-7.963-103.897
		c-9.661-67.712-16.718-146.999-6.986-214.791c0.53-21.062-0.395-42.187,0.447-63.228c27.158-148.128,13.938-138.375,71.275-282.094
		c-4.345-0.021-8.691-0.021-13.026-0.01C108.36,624.69,46.581,701.102,45.537,897.446c-7.038,1.736-14.097,3.389-21.135,5.125
		c0.14-137.177-0.3-130.621,0.447-135.542c15.516-98.715,10.641-74.433,19.565-100.778c21.461-58.258,39.622-81.927,64.788-148.101
		c1.507-3.722,2.287-8.14,5.759-10.635c11.799-9.814,28.308-10.708,40.399-20.064c29.015-21.644,52.52-49.422,78.479-74.425
		c2.89-2.547,5.281-6.03,9.138-7.152c21.56-6.581,21.322-4.885,26.198-12.496c4.169-6.903,6.934-14.575,8.847-22.383
		c8.078-1.85,16.218-3.441,24.327-5.125c7.152-11.862,14.118-23.838,21.249-35.71c17.611,2.381,36.136,3.909,53.227-2.006
		c12.646-5.179,6.039,0.195,34.629-37.103c10.687,2.152,21.187,6.945,32.321,5.312c6.061-13.608,11.945-27.289,18.006-40.898
		c26.284,0.189,29.6-11.841,43.809-23.817c11.935,2.817,23.869,5.603,35.773,8.525c9.304-12.413,18.474-24.94,27.705-37.405
		c7.579,1.695,15.168,3.389,22.746,5.104c11.676-15.074,13.625-13.15,23.037-11.581c17.26,3.65,21.718-7.238,32.352-15.428
		c13.342-5.413,32.364,5.798,36.781-1.788c11.051-16.446,22.019-32.945,33.111-49.36C728.343,133,739.28,138.77,746.422,148.334
		 M1030.304,488.802c-7.464,39.151-0.707,80.142,15.095,116.445c2.485-2.547,5.229-4.803,8.192-6.757
		c-4.366-46.979-8.545-93.969-13.078-140.928C1035.855,467.511,1032.383,478.011,1030.304,488.802 M1310.516,460.909
		c-0.195,18.361,0.586,16.272,9.138,23.277c36.111,27.784,30.108,22.483,36.043,30.637c26.029,36.449-7.918,7.271,180.879,146.562
		c3.753-1.736,7.537-3.441,11.332-5.115C1468.774,591.16,1389.619,526.071,1310.516,460.909 M1281.002,622.099
		c-20.125,4.71-25.22,12.896-34.192,34.65c-27.64,70.3-55.439,249.912-9.575,288.321c3.597-2.63,7.443-4.876,11.446-6.83
		c-0.281-30.512,8.182-60.037,12.86-89.946c21.438-123.144,45.446-176.042,170.92-198.791c-2.152-2.817-3.774-6.352-7.09-7.984
		c-22.962-11.996-40.837-34.708-69.247-44.661C1338.267,619.261,1307.348,616.2,1281.002,622.099z"/>
	<path d="M1037.342,703.873c5.302-1.507,10.791-1.986,16.291-1.705c-8.155,72.351-42.468,118.751,0.094,186.888
		c-3.535,5.364,0.875,1.557-14.773,10.115C972.504,847.256,1022.628,769.339,1037.342,703.873z"/>
	<path d="M200,1242.321c7.496-1.487,15.116-2.152,22.746-1.757c23.269,86.691,130.839,183.217,183.884,254.971
		c-2.894,27.545-34.958,76.231-53.726,96.61c-4.366-0.021-8.722-0.021-13.078-0.01c-8.234-110.369-88.351-194.047-111.226-258.184
		C217.506,1303.907,210.988,1272.407,200,1242.321z"/>
</g>
</svg>
